<svg width="669" height="580" viewBox="0 0 669 580" fill="none" xmlns="http://www.w3.org/2000/svg">
<path d="M316.137 503.5C337.345 517.326 360.566 527.779 383.901 537.422C395.284 542.071 407.826 546.651 419.401 550.64C429.764 554.321 444.846 558.838 455.507 562.044C465.571 563.69 485.092 567.178 496.307 569.318L493.055 576.063C488.616 572.329 479.836 564.782 475.494 560.952C439.766 530.958 410.788 493.831 385.281 455.004C381.071 448.505 377.02 441.918 373.038 435.287L373.442 435.71C370.788 433.526 368.204 431.245 365.664 428.929C368.863 430.382 372.045 431.879 375.165 433.5C379.524 439.999 383.954 446.445 388.525 452.794C415.411 490.009 444.802 526.185 480.574 555.14C489.135 562.308 500.736 572.505 509.192 579.85C491.982 576.389 471.161 572.206 453.934 568.463L453.697 568.411L453.6 568.375L435.477 562.37C417.599 556.17 399.502 549.125 382.249 541.288C359.204 530.658 336.378 518.929 316.137 503.509" fill="white"/>
<path d="M475.07 117.688C489.923 126.239 504.426 135.318 518.831 144.574C520.835 150.351 522.742 156.154 524.606 161.966C526.61 168.192 528.543 174.471 530.415 180.732L528.482 182.405C504.013 203.302 478.99 223.609 452.156 241.424C474.375 218.088 498.713 196.962 523.533 176.487L522.312 180.512C520.791 174.99 519.315 169.451 517.891 163.903C516.467 158.356 515.078 152.79 513.777 147.207L514.885 148.748C501.411 138.665 488.06 128.423 475.07 117.688Z" fill="white"/>
<path d="M452.151 239.342C454.858 263.154 455.939 288.137 456.748 312.134C447.695 327.466 438.528 342.727 429.211 357.891C420.616 371.832 410.236 388.37 401.341 402.116L401.042 402.583L400.726 402.838C395.338 407.25 389.985 411.688 384.545 416.039C368.812 428.702 351.383 442.73 335.352 454.874C355.11 435.914 376.406 416.558 396.832 398.285L396.217 399.008C399.425 393.319 405.973 381.985 409.286 376.367C417.803 361.722 427.26 345.88 436.102 331.508C440.673 324.093 445.181 316.634 449.813 309.264L449.277 311.236C449.497 287.556 450.042 262.899 452.134 239.351" fill="white"/>
<path d="M467.185 127.567C464.706 129.346 460.944 132.939 459.503 134.445C457.657 140.204 453.922 151.59 451.997 157.305L452.094 156.434C453.034 161.171 453.913 165.918 454.792 170.664C457.235 183.953 460.197 200.192 462.421 213.427L462.491 213.876L462.43 214.37C460.909 224.946 459.345 235.848 454.352 245.438C443.823 264.089 428.916 278.849 413.579 293.229C406.214 300.265 397.724 306.588 390.429 313.501C383.318 320.511 376.972 328.357 371.751 336.943C366.179 346.093 361.837 356 358.84 366.303C357.741 370.142 356.511 375.514 355.623 379.354C352.248 394.43 348.829 409.515 346.746 424.838C347.52 409.356 349.901 393.998 352.477 378.729C353.32 374.008 354.252 367.959 355.368 363.406C358.946 347.986 365.792 333.359 375.162 320.616C381.305 312.189 389.189 304.519 397.038 297.888C408.517 287.822 419.6 277.167 429.769 265.833C438.004 256.393 446.222 246.926 450.626 235.372C453.069 228.371 454.581 220.842 455.741 213.507V214.449C454.001 201.16 451.891 184.728 450.344 171.343C449.756 166.376 449.158 161.409 448.639 156.425L448.789 156.081L453.517 145.021L458.334 133.995L458.404 133.846C461.129 131.424 464.091 129.416 467.193 127.567" fill="white"/>
<path d="M311.2 252.541C300.881 293.516 288.313 334.078 275.296 374.269L275.278 371.777C282.784 393.317 290.282 416.063 297.164 437.832C303.922 459.346 311.086 482.902 316.764 504.671C307.878 484.038 299.071 461.01 291.187 439.893C283.25 418.476 275.199 395.941 267.896 374.322L267.465 373.054L267.878 371.83C281.246 331.744 295.195 291.649 311.2 252.541Z" fill="white"/>
<path fill-rule="evenodd" clip-rule="evenodd" d="M202.701 0.0932617H240.026V37.4162H202.792V68.3484C232.648 76.4797 262.855 84.7472 286.501 91.3619C310.012 97.7288 331.352 112.356 345.38 132.32C366.386 162.992 387.419 194.324 407.854 225.339C389.975 201.562 372.165 177.171 354.508 152.992L354.507 152.99L354.454 152.917C350.124 146.988 345.804 141.073 341.495 135.182C327.538 116.697 307.252 103.25 284.796 97.7376C262.538 91.931 228.396 82.9675 197.11 74.6913H170.209C172.916 78.0281 175.556 81.4107 178.172 84.7629L178.807 85.5762C185.443 94.2757 191.934 103.094 198.314 112.001H198.326L198.698 112.537C200.031 114.401 201.36 116.269 202.685 118.14V118.282L202.791 118.435V149.324H165.47V149.341H128.146V112.018H165.466V112.001H189.054C179.681 99.3221 170.061 86.8451 160.056 74.6913H128.146V37.3684H165.468H165.47H202.701V0.0932617ZM90.895 37.369H53.5705V74.6919H90.895V37.369ZM274.195 222.821L274.198 222.823L274.204 222.825L274.209 222.828L274.212 222.829C310.42 238.351 349.491 255.101 385.34 269.765C348.089 251.707 306.973 232.434 269.292 214.931L266.962 213.847L266.9 213.819C263.032 207.959 259.171 202.087 255.307 196.211C250.224 188.482 245.137 180.747 240.026 173.023V149.343H202.701V186.666H240.026V184.563C247.504 195.455 254.992 206.329 262.568 217.114C262.876 217.546 263.456 218.11 263.948 218.427C264.151 218.509 264.65 218.726 265.189 218.961L265.19 218.961L265.193 218.963L265.198 218.965C265.871 219.258 266.604 219.578 266.901 219.695C269.318 220.731 271.75 221.773 274.195 222.821ZM266.876 213.808C266.761 213.703 266.547 213.577 266.382 213.583L266.876 213.808ZM90.8228 74.6936H128.147V112.016H90.8228V74.6936ZM37.5432 126.638H0.21875V163.961H37.5432V126.638ZM90.8228 210.592H128.147V247.915H90.8228V210.592ZM317.431 151.344H280.106V188.667H317.431V151.344ZM170.811 159.177C180.325 158.241 190.582 157.232 202.577 156.131V155.745C164.265 155.66 139.853 156.606 106.863 157.884C99.0683 158.186 90.7942 158.506 81.7447 158.836L96.3699 164.895C103.458 168.212 110.06 172.94 116.538 177.581C117.988 178.619 119.432 179.654 120.874 180.667C128.96 186.47 136.941 192.476 144.878 198.543C156.347 207.282 168.837 217 181.452 226.814C197.413 239.232 213.574 251.805 228.12 262.749C229.046 263.396 229.947 264.08 230.85 264.766C232.838 266.275 234.833 267.79 237.112 268.922C237.323 268.993 237.577 269.046 237.815 269.072C238.149 269.09 238.158 269.09 238.122 269.09C238.046 269.09 238.088 269.095 238.161 269.104C238.223 269.111 238.307 269.122 238.36 269.134C239.46 269.311 240.574 269.545 241.705 269.782C241.919 269.827 242.134 269.873 242.35 269.917C248.537 271.23 254.73 272.576 260.93 273.924C274.282 276.826 287.67 279.736 301.115 282.334C282.086 275.906 262.952 269.988 243.607 264.599C243.106 264.477 242.609 264.344 242.11 264.21C241.105 263.94 240.095 263.669 239.047 263.498C238.973 263.445 238.892 263.389 238.806 263.329C238.465 263.092 238.051 262.804 237.683 262.512C228.218 254.953 218.767 247.266 209.289 239.556C177.876 214.003 146.164 188.208 112.648 166.066C112.27 165.832 111.896 165.599 111.523 165.366C110.995 165.037 110.47 164.711 109.947 164.387C133.379 162.859 150.382 161.187 170.811 159.177ZM238.839 263.465C238.693 263.423 238.541 263.393 238.386 263.383C238.087 263.366 238.122 263.383 238.193 263.383C238.41 263.406 238.625 263.433 238.839 263.465Z" fill="white"/>
<path d="M475.08 117.547C460.411 121.835 445.698 124.856 430.967 128.396C425.685 129.708 420.35 130.968 415.313 132.923C407.016 136.797 399.633 142.275 391.978 147.365C383.663 153.018 375.366 158.786 366.656 164.167C373.222 156.294 380.499 149.152 388.199 142.442C395.608 136.137 403.334 129.814 412.255 125.666C422.802 121.659 433.595 120.233 444.573 118.877C454.698 117.793 464.849 117.177 475.08 117.538" fill="white"/>
<path d="M516.47 146.428C566.779 139.295 618.205 137.349 668.989 137.904C634.175 148.357 591.916 160.95 556.883 170.865C546.599 173.772 536.316 176.669 525.988 179.452C536.043 175.815 546.125 172.274 556.215 168.743C583.18 159.347 620.174 146.842 647.288 137.895L648.352 143.971C604.582 147.309 560.337 148.973 516.461 146.428" fill="white"/>
<path d="M478.025 155.993C478.667 160.88 474.316 165.389 469.324 163.989C464.762 162.65 462.872 157.402 464.92 153.184C467.478 154.02 469.869 156.081 471.459 156.389C471.416 156.389 471.363 156.451 471.591 156.565C473.71 156.75 475.089 156.028 478.016 155.993" fill="white"/>
<path d="M479.616 155.692C478.026 154.935 476.197 154.732 474.527 154.741C472.286 154.723 469.14 154.635 466.916 154.6C465.624 154.618 464.147 154.662 461.906 155.701C461.018 153.385 462.17 150.672 464.086 149.078C467.9 145.899 473.543 146.093 477.27 149.202C479.063 150.69 480.495 153.349 479.608 155.701" fill="white"/>
</svg>
